HIERARCHY
ROOT Hips
{
	OFFSET -3.958830 18.904000 13.208200
	CHANNELS 6 Xposition Yposition Zposition Zrotation Yrotation Xrotation 
	JOINT LHipJoint
	{
		OFFSET 0.000000 0.000000 0.000000
		CHANNELS 3 Zrotation Yrotation Xrotation
		JOINT LeftUpLeg
		{
			OFFSET 1.800000 -1.400000 0.085000
			CHANNELS 3 Zrotation Yrotation Xrotation
			JOINT LeftLeg
			{
				OFFSET 2.215000 -6.000000 0.000000
				CHANNELS 3 Zrotation Yrotation Xrotation
				JOINT LeftFoot
				{
					OFFSET 2.500000 -6.900000 0.000000
					CHANNELS 3 Zrotation Yrotation Xrotation
					JOINT LeftToeBase
					{
						OFFSET 0.200000 -0.500000 1.950000
						CHANNELS 3 Zrotation Yrotation Xrotation
						End Site
						{
							OFFSET 0.000000 0.000000 0.000000
						}
					}
				}
			}
		}
	}
	JOINT RHipJoint
	{
		OFFSET 0.000000 0.000000 0.000000
		CHANNELS 3 Zrotation Yrotation Xrotation
		JOINT RightUpLeg
		{
			OFFSET -1.800000 -1.400000 0.085000
			CHANNELS 3 Zrotation Yrotation Xrotation
			JOINT RightLeg
			{
				OFFSET -2.215000 -6.000000 0.000000
				CHANNELS 3 Zrotation Yrotation Xrotation
				JOINT RightFoot
				{
					OFFSET -2.500000 -6.900000 0.000000
					CHANNELS 3 Zrotation Yrotation Xrotation
					JOINT RightToeBase
					{
						OFFSET -0.200000 -0.500000 1.950000
						CHANNELS 3 Zrotation Yrotation Xrotation
						End Site
						{
							OFFSET 0.000000 0.000000 0.000000
						}
					}
				}
			}
		}
	}
	JOINT LowerBack
	{
		OFFSET 0.000000 0.000000 0.000000
		CHANNELS 3 Zrotation Yrotation Xrotation
		JOINT Spine
		{
			OFFSET -0.087000 1.940000 -0.288900
			CHANNELS 3 Zrotation Yrotation Xrotation
			JOINT Spine1
			{
				OFFSET 0.000000 1.950000 0.060000
				CHANNELS 3 Zrotation Yrotation Xrotation
				JOINT Neck
				{
					OFFSET 0.000000 0.000000 0.000000
					CHANNELS 3 Zrotation Yrotation Xrotation
					JOINT Neck1
					{
						OFFSET 0.000000 1.600000 0.340000
						CHANNELS 3 Zrotation Yrotation Xrotation
						JOINT Head
						{
							OFFSET 0.000000 1.667000 -0.240000
							CHANNELS 3 Zrotation Yrotation Xrotation
							End Site
							{
								OFFSET 0.000000 0.000000 0.000000
							}
						}
					}
				}
				JOINT LeftShoulder
				{
					OFFSET 0.000000 0.000000 0.000000
					CHANNELS 3 Zrotation Yrotation Xrotation
					JOINT LeftArm
					{
						OFFSET 2.700000 1.550000 -0.730000
						CHANNELS 3 Zrotation Yrotation Xrotation
						JOINT LeftForeArm
						{
							OFFSET 5.450000 0.000000 0.000000
							CHANNELS 3 Zrotation Yrotation Xrotation
							JOINT LeftHand
							{
								OFFSET 3.450000 0.000000 0.000000
								CHANNELS 3 Zrotation Yrotation Xrotation
								JOINT LeftHandIndex1
								{
									OFFSET 0.750000 0.000000 0.000000
									CHANNELS 3 Zrotation Yrotation Xrotation
									End Site
									{
										OFFSET 0.000000 0.000000 0.000000
									}
								}
							}
						}
					}
				}
				JOINT RightShoulder
				{
					OFFSET 0.000000 0.000000 0.000000
					CHANNELS 3 Zrotation Yrotation Xrotation
					JOINT RightArm
					{
						OFFSET -2.700000 1.550000 -0.730000
						CHANNELS 3 Zrotation Yrotation Xrotation
						JOINT RightForeArm
						{
							OFFSET -5.450000 0.000000 0.000000
							CHANNELS 3 Zrotation Yrotation Xrotation
							JOINT RightHand
							{
								OFFSET -3.450000 0.000000 0.000000
								CHANNELS 3 Zrotation Yrotation Xrotation
								JOINT RightHandIndex1
								{
									OFFSET -0.750000 0.000000 0.000000
									CHANNELS 3 Zrotation Yrotation Xrotation
									End Site
									{
										OFFSET 0.000000 0.000000 0.000000
									}
								}
							}
						}
					}
				}
			}
		}
	}
}
MOTION
Frames: 13
Frame Time: 0.016667
-1.101860 17.076890 -2.135780 18.524917 8.002385 -22.666053 -16.088234 11.071794 7.580383 -4.406582 -12.185431 -85.999534 -1.364302 15.524194 67.211665 1.799727 12.111653 0.382549 0.494560 0.247320 0.491800 17.763327 -9.352576 0.864118 -27.368192 7.596685 0.575894 7.407062 -8.124878 29.413380 -0.681045 -5.756609 2.269550 -0.202900 -0.385870 0.207010 -1.707174 -3.298401 -9.253329 -8.631775 16.947647 59.677864 3.339988 13.471575 4.834663 4.653065 -4.333519 -18.944940 -6.640739 -3.000151 48.150599 3.520590 -6.901160 -17.497440 -21.448943 -17.761649 10.132799 -60.196563 21.899523 -26.358530 -40.496737 -22.931727 -0.283944 -2.829576 3.310044 0.459390 -0.450370 0.421610 0.136120 12.692120 37.183477 12.334234 17.951242 17.799855 -21.983750 -127.544625 24.434409 -75.156951 2.569234 -1.712118 0.328880 -0.178260 -0.344550 -0.013080 
-1.073800 17.196110 -2.133610 18.673535 8.420168 -23.216859 -16.096904 11.064648 7.636777 -3.220802 -11.996827 -85.270256 -3.996606 17.561882 67.926054 1.980017 12.629263 0.269335 0.476140 0.235210 0.471050 17.753689 -9.384243 0.791364 -27.115807 6.726716 1.929040 5.898874 -7.577729 27.533215 -0.665109 -5.542614 2.369920 -0.224130 -0.376350 0.214130 -1.675370 -3.371051 -9.236700 -9.148956 17.381293 60.311398 3.912673 13.778331 4.077145 4.073851 -3.714759 -18.579363 -5.487122 -3.505218 47.745267 4.061360 -6.979110 -16.812950 -20.431537 -16.762130 10.104509 -59.583467 22.819890 -26.606285 -44.195501 -22.315790 -0.220511 -2.840189 3.320193 0.449500 -0.443440 0.425930 0.146350 12.591451 35.473419 12.177563 19.024366 17.209589 -21.037493 -129.353401 22.837758 -75.573014 2.551247 -1.770096 0.338420 -0.190020 -0.349000 0.000970 
-1.047260 17.344480 -2.126280 18.649449 8.729513 -23.251659 -16.120276 11.047753 7.703079 -1.676227 -11.849349 -84.198325 -6.872226 20.339580 69.623468 2.233189 13.440527 0.078932 0.480550 0.235880 0.486480 17.737393 -9.392182 0.719936 -26.536042 5.731546 2.698733 4.307456 -6.985691 25.637371 -0.651862 -5.277049 2.486942 -0.238120 -0.393740 0.220250 -1.607303 -3.447310 -9.228785 -9.942581 17.973033 59.956218 4.954725 14.192420 3.218279 3.387889 -2.715872 -18.252105 -3.650012 -4.269672 48.183089 4.005950 -6.923830 -16.253740 -19.682204 -15.927183 10.063741 -58.917569 23.464932 -26.480101 -47.344678 -20.994473 -0.446719 -2.852300 3.321147 0.453680 -0.446750 0.439570 0.145290 13.003910 33.539246 12.083442 21.210757 16.446300 -20.115233 -131.110037 22.297475 -77.593019 2.530941 -1.787205 0.351820 -0.207280 -0.360840 -0.004070 
-1.013900 17.507540 -2.118450 18.281020 9.002949 -22.836675 -16.151805 11.039956 7.774761 -0.006904 -12.022131 -82.480772 -9.118594 23.287190 72.135479 2.515118 14.387393 -0.142791 0.489750 0.236770 0.525900 17.718316 -9.390884 0.642785 -25.551452 4.664942 2.619756 2.719599 -6.392908 24.175814 -0.636791 -4.971557 2.606036 -0.249910 -0.426060 0.229520 -1.520110 -3.531175 -9.220316 -10.681271 18.295150 58.904825 6.273035 14.493497 2.310833 2.736403 -1.508585 -17.875133 -1.447614 -5.258470 49.081702 3.154050 -6.716570 -16.321070 -19.104956 -15.181682 9.989568 -58.280793 23.735725 -26.065289 -50.195712 -19.331947 -0.846530 -2.878023 3.307404 0.469350 -0.455660 0.462050 0.125040 13.544509 31.443468 11.859345 24.344743 15.696820 -19.249609 -132.730750 22.548689 -80.838978 2.512111 -1.760952 0.364780 -0.219700 -0.364290 -0.022760 
-0.970990 17.681800 -2.115150 17.826379 8.924623 -22.111233 -16.178282 11.090142 7.789461 1.411838 -12.178791 -79.673833 -11.223458 26.250610 74.070186 2.769101 15.254454 -0.341193 0.504480 0.239850 0.577520 17.693881 -9.404418 0.571804 -24.508771 3.739262 1.480930 1.377781 -5.848703 23.412224 -0.616771 -4.653995 2.709816 -0.253880 -0.468890 0.240650 -1.435043 -3.620702 -9.186681 -11.491947 18.564234 57.462734 7.803833 14.745379 1.148474 2.092165 -0.343260 -17.360765 0.667831 -6.243891 50.141440 1.940350 -6.416130 -16.948530 -18.617137 -14.125801 9.727611 -57.633687 23.748588 -25.419168 -53.008077 -17.225982 -1.456712 -2.905569 3.287578 0.500040 -0.471920 0.493640 0.099100 14.220758 29.019317 11.504576 28.140645 14.344159 -18.621774 -134.035164 24.530835 -86.519019 2.509877 -1.695148 0.370950 -0.228730 -0.367030 -0.050220 
-0.916510 17.857440 -2.127090 17.049180 8.417641 -21.629220 -16.168669 11.233290 7.696890 2.045048 -12.246496 -75.189746 -12.249005 28.306859 75.402456 2.952105 15.815410 -0.471719 0.539560 0.269280 0.641860 17.675919 -9.496855 0.532130 -23.348798 3.110376 -0.623283 0.445608 -5.433401 24.082115 -0.610930 -4.391204 2.775767 -0.247910 -0.532270 0.251980 -1.425522 -3.629863 -9.132377 -11.591417 18.124920 56.465726 8.692849 14.665012 -0.014485 1.670713 0.400750 -16.985705 2.015816 -6.792505 51.948517 0.765960 -6.078380 -18.172250 -18.184762 -13.212254 9.495213 -57.270501 23.745404 -25.076936 -55.901201 -15.420813 -2.105305 -2.900906 3.279612 0.539510 -0.507970 0.545550 0.078210 14.615864 26.978383 11.159339 32.261628 12.844386 -18.566770 -134.534092 28.027977 -93.426966 2.540838 -1.605103 0.388440 -0.240120 -0.384390 -0.074240 
-0.859000 18.021930 -2.150250 15.863809 7.452841 -21.234751 -16.142371 11.432056 7.541613 2.388468 -11.928659 -70.240213 -12.523275 29.300552 75.843032 2.999489 16.031972 -0.544631 0.575150 0.297500 0.700150 17.665887 -9.620128 0.525051 -21.714648 2.925925 -3.733704 -0.211747 -5.099216 26.475556 -0.606412 -4.228511 2.806145 -0.235770 -0.591270 0.256230 -1.457077 -3.593312 -9.064917 -11.167172 17.284268 55.692453 9.244157 14.406433 -1.204612 1.377798 0.947627 -16.679377 3.095373 -7.053769 53.862330 -0.325270 -5.555560 -19.571010 -17.801764 -12.385041 9.244332 -57.260063 23.653153 -24.876510 -58.350037 -13.939437 -2.724701 -2.896087 3.264741 0.591710 -0.540450 0.587990 0.054030 14.829851 25.163053 10.805016 36.291605 11.188616 -18.989268 -134.107032 33.375541 -101.149981 2.580182 -1.491200 0.392960 -0.244040 -0.392220 -0.108190 
-0.792240 18.172040 -2.188130 14.060698 6.157779 -20.993007 -16.089938 11.658162 7.305174 2.565871 -11.252124 -64.947921 -12.079666 29.077325 75.452369 2.937851 15.880020 -0.543501 0.613840 0.329320 0.756110 17.672875 -9.725479 0.632467 -19.563300 3.235352 -7.195175 -0.390978 -4.932821 29.900352 -0.637852 -4.223723 2.771568 -0.219820 -0.650970 0.263010 -1.551801 -3.522674 -9.027274 -9.500213 15.608719 55.635970 8.887811 13.933162 -2.279473 1.411930 1.044534 -16.500748 3.204811 -6.945466 55.981369 -1.265810 -5.160610 -21.372160 -17.615256 -11.817744 8.911524 -57.324169 23.175882 -24.682050 -60.008100 -12.704356 -3.316048 -2.881309 3.254432 0.647290 -0.581370 0.637500 0.035620 14.626066 23.958069 10.630476 40.018869 9.646372 -19.688742 -133.042915 39.292048 -107.897963 2.635593 -1.379508 0.398280 -0.244270 -0.402190 -0.136820 
-0.716930 18.303260 -2.238100 11.524551 4.465556 -21.125986 -16.016042 11.903608 6.973609 3.244810 -9.943721 -59.355089 -11.260676 28.364460 74.901454 2.831449 15.584374 -0.512788 0.655730 0.370950 0.808410 17.703031 -9.718390 0.920671 -16.673011 4.528371 -11.172093 -0.111290 -5.030810 35.411844 -0.746214 -4.564031 2.617878 -0.202300 -0.708000 0.270460 -1.702316 -3.510544 -9.056907 -6.363797 13.065919 56.824062 7.563162 13.319588 -3.658285 1.791239 0.631831 -16.298631 2.078729 -6.229660 58.125980 -2.095680 -4.792240 -24.143370 -17.884993 -11.228321 8.431011 -57.142569 22.768013 -24.475820 -61.361347 -11.676756 -3.875358 -2.858280 3.240097 0.707830 -0.629470 0.694110 0.021160 14.203663 23.143842 10.478882 43.485576 8.009948 -20.649736 -131.367547 45.966240 -113.850783 2.701617 -1.261614 0.405990 -0.236220 -0.413720 -0.157270 
-0.637680 18.405760 -2.292140 8.355847 2.818305 -21.140866 -15.928573 12.102796 6.491851 4.304518 -8.274111 -53.715503 -9.850140 26.921953 73.825852 2.628575 15.070571 -0.441446 0.682630 0.393430 0.847330 17.766013 -9.480982 1.505965 -13.801434 7.104915 -15.898884 1.506033 -6.010325 42.747529 -0.957542 -5.434992 2.294649 -0.180980 -0.755820 0.257350 -1.902868 -3.589339 -9.175396 -2.265509 9.771619 58.462328 5.668257 12.303780 -5.080764 2.350562 -0.232164 -16.093354 -0.157258 -4.963888 59.817792 -2.772870 -4.555960 -27.166240 -18.376155 -10.724696 7.909091 -56.573132 22.584662 -24.257020 -62.959956 -10.734531 -4.504672 -2.838499 3.212297 0.773270 -0.676090 0.729620 -0.001580 13.624494 22.661363 10.317222 46.590010 6.550539 -21.574740 -128.330037 53.072589 -117.421753 2.766602 -1.096786 0.389670 -0.211080 -0.408890 -0.187600 
-0.553480 18.469590 -2.336400 4.652753 1.915308 -20.623115 -15.830763 12.243963 5.850352 5.140057 -6.802111 -48.248420 -7.564177 24.296252 71.908414 2.349913 14.229060 -0.261835 0.699800 0.400880 0.865790 17.861759 -9.035190 2.378152 -11.860487 10.471954 -21.280400 4.983447 -8.535182 50.191176 -1.286695 -6.757911 1.850318 -0.165540 -0.768230 0.248290 -2.155822 -3.759098 -9.353438 2.638755 5.570762 59.449056 3.483638 10.585784 -6.281924 3.003822 -1.456336 -15.930559 -3.373609 -3.287687 60.884589 -3.384540 -4.669690 -29.134860 -19.151181 -10.490688 7.477619 -55.689025 22.572047 -24.016242 -64.211397 -9.737849 -5.269560 -2.826688 3.182380 0.824660 -0.705350 0.751030 -0.001160 13.138379 22.410182 10.168972 49.329429 5.318466 -22.014045 -123.381321 59.518265 -116.850111 2.852411 -0.811144 0.367160 -0.172140 -0.404940 -0.200930 
-0.469810 18.488910 -2.368870 0.595921 1.958979 -19.684930 -15.739149 12.351280 5.110582 5.926773 -5.619864 -43.153268 -4.794189 20.825184 68.923718 2.012652 13.079892 0.012945 0.707720 0.401370 0.865890 17.975511 -8.469884 3.392662 -11.459314 13.929266 -27.252254 10.231554 -12.892586 56.584190 -1.709595 -8.402830 1.337540 -0.156210 -0.771380 0.245580 -2.420880 -4.035225 -9.529929 7.872237 0.901513 59.543779 1.526759 8.314214 -7.138246 3.608179 -2.666655 -15.662477 -6.579131 -1.710841 60.541268 -3.774450 -4.777060 -30.328330 -19.558003 -10.267295 7.122885 -55.037806 22.298344 -23.727630 -65.113330 -8.751597 -5.975403 -2.819344 3.184407 0.852100 -0.721260 0.757230 0.002660 12.322047 21.892568 9.866193 51.927373 4.472330 -21.711104 -114.623394 65.034760 -108.686543 3.004954 0.073456 0.353230 -0.155060 -0.400750 -0.205190 
-0.387260 18.470430 -2.395700 -3.323385 2.159278 -18.601391 -15.632913 12.422073 4.344896 7.242252 -4.274454 -38.384375 -2.701972 17.647957 64.427085 1.666923 11.785735 0.352173 0.711600 0.403580 0.855610 18.112067 -7.955706 4.397529 -12.554362 17.028171 -33.620062 16.476306 -18.418728 61.118161 -2.172556 -10.113958 0.854238 -0.147720 -0.766940 0.238000 -2.733183 -4.200726 -9.674119 13.080758 -3.754493 58.899625 -0.585976 5.712891 -7.779972 4.365968 -3.861786 -15.021652 -9.733105 -0.089561 59.005225 -3.948180 -4.608180 -30.784960 -19.279894 -9.863081 6.925613 -54.461831 21.832339 -23.300586 -65.797252 -7.708929 -6.658034 -2.806197 3.205642 0.853750 -0.725730 0.748380 0.011330 10.666678 21.158107 9.015419 54.996254 4.618665 -26.192915 -96.185513 75.383868 -83.887629 2.392115 4.245468 0.345420 -0.148360 -0.401440 -0.202820 
